<svg width="163" height="56" viewBox="0 0 163 56" fill="none" xmlns="http://www.w3.org/2000/svg">
<path d="M39.9849 20.4C39.9849 20.9 39.9849 21.4 39.6518 21.9C39.3187 22.4 39.1521 22.7333 38.6524 23.0667L27.3256 30.7333H39.9849C39.9849 31.0667 39.9849 31.4 39.4852 31.7333C38.9855 32.0667 38.6524 32.4 38.1527 32.5667C37.653 32.7333 36.8201 32.9 36.1538 32.9H21.3291V31.0667L34.8213 21.9H20.9959C20.9959 21.5667 20.9959 21.2333 21.4957 20.9C21.9954 20.5667 22.3285 20.2333 22.8282 20.0667C23.3279 19.9 24.1608 19.7333 24.8271 19.7333H39.9849V20.4Z" fill="#231F20"/>
<path fill-rule="evenodd" clip-rule="evenodd" d="M41.9838 14.8H18.9971C17.2308 14.8 15.799 16.2327 15.799 18V35C15.799 36.7673 17.2308 38.2 18.9971 38.2H41.9838C43.7501 38.2 45.1819 36.7673 45.1819 35V18C45.1819 16.2327 43.7501 14.8 41.9838 14.8ZM18.9971 13C16.2373 13 14 15.2386 14 18V35C14 37.7614 16.2373 40 18.9971 40H41.9838C44.7436 40 46.9809 37.7614 46.9809 35V18C46.9809 15.2386 44.7436 13 41.9838 13H18.9971Z" fill="black"/>
<path d="M61.5263 19.3982H64.2912L70.0081 34.25H67.2224L65.8295 30.3186H59.9047L58.5119 34.25H55.8301L61.5263 19.3982ZM60.6116 28.3426H65.1435L62.9191 21.9567H62.8567L60.6116 28.3426Z" fill="#262626"/>
<path d="M78.3442 27.0945C78.2472 26.4289 77.977 25.9297 77.5335 25.5969C77.1038 25.2502 76.5564 25.0768 75.8911 25.0768C75.5862 25.0768 75.2606 25.1323 74.9141 25.2432C74.5676 25.3403 74.2488 25.5345 73.9578 25.8257C73.6668 26.103 73.4242 26.4982 73.2302 27.0113C73.0362 27.5105 72.9391 28.1692 72.9391 28.9874C72.9391 29.4311 72.9876 29.8749 73.0847 30.3186C73.1955 30.7624 73.3618 31.1576 73.5836 31.5043C73.8192 31.851 74.1172 32.1352 74.4775 32.3571C74.8379 32.5651 75.2744 32.6691 75.7872 32.6691C76.4802 32.6691 77.0484 32.4542 77.4919 32.0243C77.9492 31.5944 78.2334 30.9912 78.3442 30.2146H80.7141C80.4924 31.6152 79.9588 32.6899 79.1134 33.4388C78.2819 34.1737 77.1731 34.5412 75.7872 34.5412C74.9418 34.5412 74.1934 34.4025 73.542 34.1252C72.9045 33.834 72.364 33.4457 71.9205 32.9603C71.477 32.4611 71.1374 31.8718 70.9018 31.1923C70.6801 30.5128 70.5692 29.7778 70.5692 28.9874C70.5692 28.1831 70.6801 27.4273 70.9018 26.7201C71.1236 26.0129 71.4562 25.4027 71.8997 24.8896C72.3432 24.3627 72.8906 23.9536 73.542 23.6624C74.2073 23.3573 74.9834 23.2048 75.8704 23.2048C76.494 23.2048 77.083 23.288 77.6374 23.4544C78.2056 23.6069 78.7046 23.8427 79.1342 24.1616C79.5777 24.4805 79.938 24.8827 80.2152 25.368C80.4924 25.8534 80.6587 26.4289 80.7141 27.0945H78.3442Z" fill="#262626"/>
<path d="M91.6421 31.8579C91.6421 32.1491 91.6767 32.3571 91.746 32.4819C91.8292 32.6067 91.9816 32.6691 92.2034 32.6691C92.2727 32.6691 92.3558 32.6691 92.4528 32.6691C92.5498 32.6691 92.6607 32.6553 92.7854 32.6275V34.2708C92.7023 34.2985 92.5914 34.3263 92.4528 34.354C92.3281 34.3956 92.1964 34.4303 92.0578 34.458C91.9193 34.4857 91.7806 34.5065 91.6421 34.5204C91.5035 34.5343 91.3857 34.5412 91.2887 34.5412C90.8036 34.5412 90.4017 34.4441 90.0829 34.25C89.7641 34.0559 89.5563 33.7161 89.4592 33.2308C88.988 33.6884 88.4059 34.0212 87.713 34.2292C87.0339 34.4372 86.3756 34.5412 85.738 34.5412C85.253 34.5412 84.7887 34.4719 84.3452 34.3332C83.9017 34.2084 83.5067 34.0212 83.1602 33.7716C82.8276 33.5081 82.5574 33.1822 82.3495 32.7939C82.1554 32.3918 82.0584 31.9272 82.0584 31.4003C82.0584 30.7347 82.1762 30.1938 82.4118 29.7778C82.6613 29.3618 82.9801 29.0359 83.3681 28.8002C83.77 28.5644 84.2135 28.398 84.6986 28.301C85.1975 28.19 85.6965 28.1068 86.1954 28.0514C86.625 27.9681 87.0339 27.9127 87.4219 27.8849C87.81 27.8433 88.1495 27.7809 88.4406 27.6977C88.7455 27.6145 88.9811 27.4897 89.1474 27.3233C89.3276 27.143 89.4177 26.8796 89.4177 26.5329C89.4177 26.2278 89.3414 25.9782 89.189 25.7841C89.0504 25.5899 88.8702 25.4443 88.6485 25.3472C88.4406 25.2363 88.205 25.167 87.9417 25.1392C87.6783 25.0976 87.4289 25.0768 87.1933 25.0768C86.528 25.0768 85.9806 25.2155 85.5509 25.4928C85.1213 25.7702 84.8788 26.2001 84.8233 26.7825H82.4534C82.495 26.0891 82.6613 25.5137 82.9523 25.056C83.2434 24.5984 83.6107 24.2309 84.0542 23.9536C84.5115 23.6762 85.0243 23.4821 85.5925 23.3712C86.1608 23.2602 86.7428 23.2048 87.3388 23.2048C87.8654 23.2048 88.3852 23.2602 88.8979 23.3712C89.4107 23.4821 89.8681 23.6624 90.27 23.912C90.6858 24.1616 91.0184 24.4875 91.2679 24.8896C91.5173 25.2779 91.6421 25.7563 91.6421 26.3249V31.8579ZM89.2721 28.8626C88.9118 29.0983 88.4683 29.2439 87.9417 29.2994C87.415 29.341 86.8884 29.4103 86.3617 29.5074C86.1122 29.549 85.8697 29.6114 85.6341 29.6946C85.3985 29.764 85.1906 29.868 85.0104 30.0066C84.8303 30.1314 84.6847 30.3048 84.5739 30.5267C84.4769 30.7347 84.4284 30.9912 84.4284 31.2963C84.4284 31.5598 84.5046 31.7816 84.657 31.9619C84.8095 32.1422 84.9896 32.2878 85.1975 32.3987C85.4193 32.4958 85.6549 32.5651 85.9044 32.6067C86.1677 32.6483 86.4033 32.6691 86.6112 32.6691C86.8745 32.6691 87.1586 32.6345 87.4635 32.5651C87.7684 32.4958 88.0525 32.3779 88.3158 32.2115C88.593 32.0451 88.8217 31.8371 89.0019 31.5875C89.1821 31.324 89.2721 31.0051 89.2721 30.6307V28.8626Z" fill="#262626"/>
<path d="M104.316 34.25H102.071V32.7939H102.029C101.711 33.418 101.246 33.8687 100.637 34.146C100.027 34.4095 99.3824 34.5412 98.7033 34.5412C97.8578 34.5412 97.1164 34.3956 96.4789 34.1044C95.8552 33.7993 95.3355 33.3902 94.9197 32.8771C94.5039 32.3641 94.1921 31.7608 93.9842 31.0675C93.7763 30.3602 93.6724 29.6045 93.6724 28.8002C93.6724 27.8295 93.804 26.9905 94.0674 26.2833C94.3307 25.5761 94.6772 24.9936 95.1068 24.536C95.5503 24.0784 96.0492 23.7456 96.6036 23.5376C97.1718 23.3157 97.747 23.2048 98.3291 23.2048C98.6617 23.2048 99.0012 23.2394 99.3477 23.3088C99.6942 23.3642 100.027 23.4613 100.346 23.6C100.664 23.7386 100.955 23.9189 101.219 24.1408C101.496 24.3488 101.725 24.5984 101.905 24.8896H101.946V19.3982H104.316V34.25ZM96.0423 28.9874C96.0423 29.445 96.0977 29.8957 96.2086 30.3394C96.3333 30.7832 96.5135 31.1784 96.7491 31.5251C96.9986 31.8718 97.3104 32.1491 97.6846 32.3571C98.0588 32.5651 98.5023 32.6691 99.0151 32.6691C99.5417 32.6691 99.9922 32.5582 100.366 32.3363C100.754 32.1144 101.066 31.8232 101.302 31.4627C101.551 31.1021 101.731 30.7 101.842 30.2562C101.967 29.7986 102.029 29.3341 102.029 28.8626C102.029 27.67 101.759 26.7409 101.219 26.0753C100.692 25.4096 99.9714 25.0768 99.0567 25.0768C98.5023 25.0768 98.0311 25.1947 97.643 25.4304C97.2688 25.6523 96.957 25.9505 96.7075 26.3249C96.4719 26.6854 96.2987 27.1014 96.1878 27.5729C96.0908 28.0306 96.0423 28.502 96.0423 28.9874Z" fill="#262626"/>
<path d="M114.281 27.9265C114.253 27.5521 114.17 27.1916 114.031 26.8449C113.907 26.4982 113.727 26.2001 113.491 25.9505C113.269 25.687 112.992 25.479 112.659 25.3264C112.341 25.16 111.98 25.0768 111.578 25.0768C111.163 25.0768 110.781 25.1531 110.435 25.3056C110.102 25.4443 109.811 25.6454 109.562 25.9089C109.326 26.1585 109.132 26.4566 108.98 26.8033C108.841 27.15 108.765 27.5244 108.751 27.9265H114.281ZM108.751 29.4866C108.751 29.9026 108.807 30.3048 108.917 30.6931C109.042 31.0813 109.222 31.4211 109.458 31.7123C109.693 32.0035 109.991 32.2393 110.352 32.4195C110.712 32.5859 111.142 32.6691 111.641 32.6691C112.334 32.6691 112.888 32.5235 113.304 32.2323C113.733 31.9272 114.052 31.4766 114.26 30.8803H116.505C116.381 31.4627 116.166 31.9827 115.861 32.4403C115.556 32.8979 115.189 33.2862 114.759 33.6052C114.329 33.9103 113.844 34.1391 113.304 34.2916C112.777 34.458 112.223 34.5412 111.641 34.5412C110.795 34.5412 110.047 34.4025 109.396 34.1252C108.744 33.8479 108.19 33.4596 107.732 32.9603C107.289 32.4611 106.949 31.8648 106.714 31.1715C106.492 30.4781 106.381 29.7154 106.381 28.8834C106.381 28.1207 106.499 27.3996 106.735 26.7201C106.984 26.0267 107.33 25.4235 107.774 24.9104C108.231 24.3835 108.779 23.9675 109.416 23.6624C110.054 23.3573 110.774 23.2048 111.578 23.2048C112.424 23.2048 113.179 23.385 113.844 23.7456C114.523 24.0923 115.085 24.5568 115.528 25.1392C115.972 25.7217 116.29 26.3942 116.484 27.1569C116.692 27.9057 116.748 28.6823 116.651 29.4866H108.751Z" fill="#262626"/>
<path d="M118.452 23.496H120.698V24.9936H120.76C120.94 24.7302 121.134 24.4875 121.342 24.2656C121.55 24.0437 121.779 23.8565 122.028 23.704C122.291 23.5514 122.589 23.4336 122.922 23.3504C123.255 23.2533 123.636 23.2048 124.065 23.2048C124.717 23.2048 125.32 23.3504 125.874 23.6416C126.442 23.9328 126.844 24.3835 127.08 24.9936C127.482 24.4389 127.946 24.0021 128.473 23.6832C128.999 23.3642 129.658 23.2048 130.448 23.2048C131.584 23.2048 132.464 23.4821 133.088 24.0368C133.725 24.5915 134.044 25.5206 134.044 26.8241V34.25H131.674V27.9681C131.674 27.5383 131.66 27.15 131.633 26.8033C131.605 26.4428 131.522 26.1377 131.383 25.8881C131.258 25.6246 131.064 25.4235 130.801 25.2848C130.538 25.1462 130.177 25.0768 129.72 25.0768C128.916 25.0768 128.334 25.3264 127.974 25.8257C127.613 26.3249 127.433 27.0321 127.433 27.9473V34.25H125.063V27.3441C125.063 26.5953 124.925 26.0337 124.647 25.6593C124.384 25.271 123.892 25.0768 123.171 25.0768C122.867 25.0768 122.569 25.1392 122.278 25.264C122 25.3888 121.751 25.5691 121.529 25.8049C121.321 26.0406 121.148 26.3318 121.009 26.6785C120.885 27.0252 120.822 27.4204 120.822 27.8641V34.25H118.452V23.496Z" fill="#262626"/>
<path d="M135.356 23.496H137.955L140.761 31.5251H140.803L143.526 23.496H146L141.821 34.8324C141.627 35.3178 141.433 35.7823 141.239 36.2261C141.059 36.6698 140.831 37.0581 140.553 37.3909C140.29 37.7376 139.957 38.008 139.555 38.2022C139.154 38.4102 138.641 38.5142 138.017 38.5142C137.463 38.5142 136.915 38.4726 136.375 38.3894V36.3925C136.569 36.4202 136.756 36.448 136.936 36.4757C137.116 36.5173 137.303 36.5381 137.497 36.5381C137.775 36.5381 138.003 36.5034 138.183 36.4341C138.364 36.3648 138.509 36.2607 138.62 36.1221C138.745 35.9973 138.849 35.8447 138.932 35.6645C139.015 35.4842 139.091 35.2762 139.16 35.0404L139.431 34.2084L135.356 23.496Z" fill="#262626"/>
<path d="M39.9849 20.4C39.9849 20.9 39.9849 21.4 39.6518 21.9C39.3187 22.4 39.1521 22.7333 38.6524 23.0667L27.3256 30.7333H39.9849C39.9849 31.0667 39.9849 31.4 39.4852 31.7333C38.9855 32.0667 38.6524 32.4 38.1527 32.5667C37.653 32.7333 36.8201 32.9 36.1538 32.9H21.3291V31.0667L34.8213 21.9H20.9959C20.9959 21.5667 20.9959 21.2333 21.4957 20.9C21.9954 20.5667 22.3285 20.2333 22.8282 20.0667C23.3279 19.9 24.1608 19.7333 24.8271 19.7333H39.9849V20.4Z" fill="#231F20"/>
<path fill-rule="evenodd" clip-rule="evenodd" d="M41.9838 14.8H18.9971C17.2308 14.8 15.799 16.2327 15.799 18V35C15.799 36.7673 17.2308 38.2 18.9971 38.2H41.9838C43.7501 38.2 45.1819 36.7673 45.1819 35V18C45.1819 16.2327 43.7501 14.8 41.9838 14.8ZM18.9971 13C16.2373 13 14 15.2386 14 18V35C14 37.7614 16.2373 40 18.9971 40H41.9838C44.7436 40 46.9809 37.7614 46.9809 35V18C46.9809 15.2386 44.7436 13 41.9838 13H18.9971Z" fill="black"/>
</svg>
