<svg width="127" height="27" viewBox="0 0 127 27" fill="none" xmlns="http://www.w3.org/2000/svg">
<path d="M3 0.9H26.1V24C26.1 25.1598 25.1598 26.1 24 26.1H0.9V3C0.9 1.8402 1.8402 0.9 3 0.9Z" stroke="#A51C30" stroke-width="1.8"/>
<path d="M21 7.65823C21 8.1519 21 8.64557 20.7368 9.13924C20.4737 9.63291 20.3421 9.96203 19.9474 10.2911L11 17.8608H21C21 18.1899 20.8002 18.6856 20.6053 18.8481C20 19.5 19.9474 19.5063 19.5526 19.6709C19.1579 19.8354 18.5 20 17.9737 20H6.26316V18.1899L16.9211 9.13924H6C6 8.81013 6.20089 8.43163 6.39474 8.1519C6.5 8 7.05263 7.49367 7.44737 7.32911C7.84211 7.16456 8.5 7 9.02632 7H21V7.65823Z" fill="#A51C30"/>
<path d="M6 9.21424H16.7169L6.21461 18.1327L6.18816 18.1552V18.1899V20V20.075H6.26316H17.9737C18.5118 20.075 19.1796 19.9077 19.5815 19.7401C19.5967 19.7338 19.6115 19.7276 19.6258 19.7217C19.7957 19.6512 19.9094 19.604 20.045 19.5022C20.189 19.3943 20.3572 19.2254 20.6571 18.9025C20.7676 18.8083 20.8705 18.6315 20.9453 18.4448C21.0218 18.2541 21.075 18.038 21.075 17.8608V17.7858H21H11.2048L19.9954 10.3487C19.9955 10.3487 19.9955 10.3486 19.9956 10.3486C20.3436 10.0583 20.4961 9.76426 20.6941 9.38254C20.7286 9.31601 20.7645 9.24682 20.803 9.17452C21.075 8.66429 21.075 8.15445 21.075 7.66459V7.65823V7V6.925H21H9.02632C8.48818 6.925 7.82044 7.09233 7.41851 7.25989C7.2106 7.34656 6.96683 7.5201 6.76467 7.68748C6.56358 7.85398 6.39206 8.02409 6.33309 8.10918C6.13811 8.39055 5.925 8.7855 5.925 9.13924V9.21424H6Z" stroke="#A51C30" stroke-opacity="0.870588" stroke-width="0.15"/>
<path d="M41.5538 6.14821H44.3203L50.0406 21H47.2532L45.8596 17.0686H39.9314L38.5377 21H35.8544L41.5538 6.14821ZM40.6386 15.0926H45.1732L42.9475 8.70671H42.8851L40.6386 15.0926ZM58.3815 13.8445C58.2845 13.1789 58.0141 12.6797 57.5703 12.3469C57.1404 12.0002 56.5927 11.8268 55.927 11.8268C55.622 11.8268 55.2961 11.8823 54.9494 11.9932C54.6027 12.0903 54.2838 12.2845 53.9926 12.5757C53.7013 12.853 53.4587 13.2482 53.2645 13.7613C53.0704 14.2605 52.9733 14.9192 52.9733 15.7374C52.9733 16.1811 53.0219 16.6249 53.1189 17.0686C53.2299 17.5124 53.3963 17.9076 53.6181 18.2543C53.8539 18.601 54.152 18.8852 54.5126 19.1071C54.8731 19.3151 55.3099 19.4191 55.823 19.4191C56.5164 19.4191 57.0849 19.2042 57.5287 18.7743C57.9863 18.3444 58.2706 17.7412 58.3815 16.9646H60.7528C60.531 18.3652 59.9971 19.4399 59.1512 20.1888C58.3191 20.9237 57.2098 21.2912 55.823 21.2912C54.9771 21.2912 54.2283 21.1525 53.5765 20.8752C52.9386 20.584 52.3978 20.1957 51.9541 19.7103C51.5103 19.2111 51.1706 18.6218 50.9348 17.9423C50.713 17.2628 50.602 16.5278 50.602 15.7374C50.602 14.9331 50.713 14.1773 50.9348 13.4701C51.1567 12.7629 51.4895 12.1527 51.9333 11.6396C52.377 11.1127 52.9248 10.7036 53.5765 10.4124C54.2422 10.1073 55.0187 9.95476 55.9062 9.95476C56.5303 9.95476 57.1196 10.038 57.6743 10.2044C58.2429 10.3569 58.7421 10.5927 59.172 10.9116C59.6157 11.2305 59.9763 11.6327 60.2536 12.118C60.531 12.6034 60.6974 13.1789 60.7528 13.8445H58.3815ZM71.6871 18.6079C71.6871 18.8991 71.7217 19.1071 71.7911 19.2319C71.8743 19.3567 72.0268 19.4191 72.2487 19.4191C72.318 19.4191 72.4012 19.4191 72.4983 19.4191C72.5954 19.4191 72.7063 19.4053 72.8311 19.3775V21.0208C72.7479 21.0485 72.637 21.0763 72.4983 21.104C72.3735 21.1456 72.2418 21.1803 72.1031 21.208C71.9644 21.2357 71.8257 21.2565 71.6871 21.2704C71.5484 21.2843 71.4305 21.2912 71.3335 21.2912C70.8481 21.2912 70.446 21.1941 70.127 21C69.8081 20.8059 69.6001 20.4661 69.503 19.9808C69.0315 20.4384 68.4491 20.7712 67.7557 20.9792C67.0762 21.1872 66.4175 21.2912 65.7796 21.2912C65.2943 21.2912 64.8297 21.2219 64.386 21.0832C63.9422 20.9584 63.547 20.7712 63.2003 20.5216C62.8675 20.2581 62.5971 19.9322 62.3891 19.5439C62.195 19.1418 62.0979 18.6772 62.0979 18.1503C62.0979 17.4847 62.2158 16.9438 62.4515 16.5278C62.7011 16.1118 63.0201 15.7859 63.4083 15.5502C63.8105 15.3144 64.2542 15.148 64.7396 15.051C65.2388 14.94 65.738 14.8568 66.2373 14.8014C66.6671 14.7181 67.0762 14.6627 67.4645 14.6349C67.8528 14.5933 68.1925 14.5309 68.4837 14.4477C68.7888 14.3645 69.0246 14.2397 69.191 14.0733C69.3713 13.893 69.4614 13.6296 69.4614 13.2829C69.4614 12.9778 69.3851 12.7282 69.2326 12.5341C69.0939 12.3399 68.9136 12.1943 68.6918 12.0972C68.4837 11.9863 68.248 11.917 67.9845 11.8892C67.7211 11.8476 67.4714 11.8268 67.2357 11.8268C66.5701 11.8268 66.0223 11.9655 65.5924 12.2428C65.1625 12.5202 64.9199 12.9501 64.8644 13.5325H62.4931C62.5347 12.8391 62.7011 12.2637 62.9923 11.806C63.2835 11.3484 63.651 10.9809 64.0948 10.7036C64.5524 10.4262 65.0655 10.2321 65.634 10.1212C66.2026 10.0102 66.785 9.95476 67.3813 9.95476C67.9083 9.95476 68.4283 10.0102 68.9414 10.1212C69.4545 10.2321 69.9121 10.4124 70.3142 10.662C70.7302 10.9116 71.0631 11.2375 71.3127 11.6396C71.5623 12.0279 71.6871 12.5063 71.6871 13.0749V18.6079ZM69.3158 15.6126C68.9552 15.8483 68.5115 15.9939 67.9845 16.0494C67.4576 16.091 66.9306 16.1603 66.4037 16.2574C66.1541 16.299 65.9114 16.3614 65.6756 16.4446C65.4399 16.514 65.2319 16.618 65.0516 16.7566C64.8713 16.8814 64.7257 17.0548 64.6148 17.2767C64.5177 17.4847 64.4692 17.7412 64.4692 18.0463C64.4692 18.3098 64.5455 18.5316 64.698 18.7119C64.8505 18.8922 65.0308 19.0378 65.2388 19.1487C65.4607 19.2458 65.6964 19.3151 65.946 19.3567C66.2095 19.3983 66.4453 19.4191 66.6533 19.4191C66.9168 19.4191 67.201 19.3845 67.5061 19.3151C67.8112 19.2458 68.0955 19.1279 68.3589 18.9615C68.6363 18.7951 68.8651 18.5871 69.0454 18.3375C69.2256 18.074 69.3158 17.7551 69.3158 17.3807V15.6126ZM84.3686 21H82.1221V19.5439H82.0805C81.7616 20.168 81.297 20.6187 80.6868 20.896C80.0767 21.1595 79.4319 21.2912 78.7524 21.2912C77.9065 21.2912 77.1646 21.1456 76.5267 20.8544C75.9027 20.5493 75.3826 20.1402 74.9666 19.6271C74.5506 19.1141 74.2386 18.5108 74.0306 17.8175C73.8226 17.1102 73.7186 16.3545 73.7186 15.5502C73.7186 14.5795 73.8503 13.7405 74.1138 13.0333C74.3773 12.3261 74.7239 11.7436 75.1538 11.286C75.5976 10.8284 76.0968 10.4956 76.6515 10.2876C77.22 10.0657 77.7955 9.95476 78.378 9.95476C78.7108 9.95476 79.0505 9.98943 79.3972 10.0588C79.7439 10.1142 80.0767 10.2113 80.3956 10.35C80.7146 10.4886 81.0058 10.6689 81.2693 10.8908C81.5466 11.0988 81.7754 11.3484 81.9557 11.6396H81.9973V6.14821H84.3686V21ZM76.0899 15.7374C76.0899 16.195 76.1453 16.6457 76.2563 17.0894C76.3811 17.5332 76.5613 17.9284 76.7971 18.2751C77.0467 18.6218 77.3587 18.8991 77.7331 19.1071C78.1075 19.3151 78.5513 19.4191 79.0644 19.4191C79.5913 19.4191 80.042 19.3082 80.4164 19.0863C80.8047 18.8644 81.1167 18.5732 81.3525 18.2127C81.6021 17.8521 81.7824 17.45 81.8933 17.0062C82.0181 16.5486 82.0805 16.0841 82.0805 15.6126C82.0805 14.42 81.8101 13.4909 81.2693 12.8253C80.7423 12.1596 80.0212 11.8268 79.106 11.8268C78.5513 11.8268 78.0798 11.9447 77.6915 12.1804C77.3171 12.4023 77.0051 12.7005 76.7555 13.0749C76.5197 13.4354 76.3464 13.8514 76.2355 14.3229C76.1384 14.7806 76.0899 15.252 76.0899 15.7374ZM94.339 14.6765C94.3113 14.3021 94.2281 13.9416 94.0894 13.5949C93.9646 13.2482 93.7843 12.9501 93.5486 12.7005C93.3267 12.437 93.0494 12.229 92.7166 12.0764C92.3976 11.91 92.0371 11.8268 91.6349 11.8268C91.2189 11.8268 90.8375 11.9031 90.4909 12.0556C90.1581 12.1943 89.8668 12.3954 89.6172 12.6589C89.3815 12.9085 89.1873 13.2066 89.0348 13.5533C88.8961 13.9 88.8199 14.2744 88.806 14.6765H94.339ZM88.806 16.2366C88.806 16.6526 88.8615 17.0548 88.9724 17.4431C89.0972 17.8313 89.2775 18.1711 89.5132 18.4623C89.749 18.7535 90.0471 18.9893 90.4077 19.1695C90.7682 19.3359 91.1981 19.4191 91.6973 19.4191C92.3907 19.4191 92.9454 19.2735 93.3614 18.9823C93.7913 18.6772 94.1102 18.2266 94.3182 17.6303H96.5647C96.4399 18.2127 96.225 18.7327 95.9199 19.1903C95.6148 19.6479 95.2473 20.0362 94.8174 20.3552C94.3876 20.6603 93.9022 20.8891 93.3614 21.0416C92.8344 21.208 92.2797 21.2912 91.6973 21.2912C90.8514 21.2912 90.1026 21.1525 89.4508 20.8752C88.7991 20.5979 88.2444 20.2096 87.7868 19.7103C87.343 19.2111 87.0033 18.6148 86.7675 17.9215C86.5456 17.2281 86.4347 16.4654 86.4347 15.6334C86.4347 14.8707 86.5526 14.1496 86.7883 13.4701C87.0379 12.7767 87.3846 12.1735 87.8284 11.6604C88.286 11.1335 88.8337 10.7175 89.4716 10.4124C90.1095 10.1073 90.8306 9.95476 91.6349 9.95476C92.4808 9.95476 93.2366 10.135 93.9022 10.4956C94.5817 10.8423 95.1433 11.3068 95.5871 11.8892C96.0308 12.4717 96.3498 13.1442 96.5439 13.9069C96.7519 14.6557 96.8074 15.4323 96.7103 16.2366H88.806ZM98.513 10.246H100.759V11.7436H100.822C101.002 11.4802 101.196 11.2375 101.404 11.0156C101.612 10.7937 101.841 10.6065 102.091 10.454C102.354 10.3014 102.652 10.1836 102.985 10.1004C103.318 10.0033 103.699 9.95476 104.129 9.95476C104.781 9.95476 105.384 10.1004 105.939 10.3916C106.507 10.6828 106.91 11.1335 107.145 11.7436C107.547 11.1889 108.012 10.7521 108.539 10.4332C109.066 10.1142 109.725 9.95476 110.515 9.95476C111.652 9.95476 112.533 10.2321 113.157 10.7868C113.795 11.3415 114.114 12.2706 114.114 13.5741V21H111.742V14.7181C111.742 14.2883 111.728 13.9 111.701 13.5533C111.673 13.1928 111.59 12.8877 111.451 12.6381C111.326 12.3746 111.132 12.1735 110.869 12.0348C110.605 11.8962 110.245 11.8268 109.787 11.8268C108.983 11.8268 108.4 12.0764 108.04 12.5757C107.679 13.0749 107.499 13.7821 107.499 14.6973V21H105.128V14.0941C105.128 13.3453 104.989 12.7837 104.712 12.4093C104.448 12.021 103.956 11.8268 103.235 11.8268C102.93 11.8268 102.632 11.8892 102.34 12.014C102.063 12.1388 101.813 12.3191 101.592 12.5549C101.384 12.7906 101.21 13.0818 101.071 13.4285C100.947 13.7752 100.884 14.1704 100.884 14.6141V21H98.513V10.246ZM115.427 10.246H118.027L120.835 18.2751H120.876L123.601 10.246H126.077L121.896 21.5824C121.701 22.0678 121.507 22.5323 121.313 22.9761C121.133 23.4198 120.904 23.8081 120.627 24.1409C120.363 24.4876 120.03 24.758 119.628 24.9522C119.226 25.1602 118.713 25.2642 118.089 25.2642C117.534 25.2642 116.987 25.2226 116.446 25.1394V23.1425C116.64 23.1702 116.827 23.198 117.007 23.2257C117.188 23.2673 117.375 23.2881 117.569 23.2881C117.846 23.2881 118.075 23.2534 118.255 23.1841C118.436 23.1148 118.581 23.0107 118.692 22.8721C118.817 22.7473 118.921 22.5947 119.004 22.4145C119.087 22.2342 119.164 22.0262 119.233 21.7904L119.503 20.9584L115.427 10.246Z" fill="#262626"/>
</svg>
